<svg width="24" height="24" viewBox="0 0 24 24" fill="none" xmlns="http://www.w3.org/2000/svg">
<path opacity="0.4" d="M22 7.81V15.16C21.71 15.02 21.39 14.92 21.03 14.86L20.72 14.81L20.46 14.27C19.91 13.15 19.01 12.5 18 12.5C16.99 12.5 16.09 13.15 15.54 14.27L15.27 14.81L14.97 14.86C13.78 15.06 12.92 15.72 12.61 16.66C12.31 17.61 12.62 18.65 13.47 19.51L13.78 19.82L13.75 19.94C13.55 20.83 13.63 21.51 13.82 22H7.81C4.17 22 2 19.83 2 16.19V7.81C2 4.17 4.17 2 7.81 2H16.19C19.83 2 22 4.17 22 7.81Z" fill="black"/>
<path d="M19.12 14.94L19.44 15.59C19.6 15.91 20.01 16.21 20.35 16.27L20.78 16.34C22.09 16.56 22.39 17.52 21.46 18.46L21.06 18.86C20.79 19.13 20.65 19.65 20.73 20.03L20.78 20.27C21.14 21.85 20.3 22.46 18.93 21.63L18.64 21.45C18.29 21.24 17.71 21.24 17.36 21.45L17.07 21.63C15.69 22.46 14.86 21.85 15.22 20.27L15.27 20.03C15.35 19.66 15.21 19.13 14.94 18.86L14.54 18.46C13.61 17.51 13.91 16.56 15.22 16.34L15.65 16.27C16 16.21 16.4 15.91 16.56 15.59L16.88 14.94C17.5 13.69 18.5 13.69 19.12 14.94Z" fill="black"/>
<path fill-rule="evenodd" clip-rule="evenodd" d="M16.1295 7.91722C16.4569 8.17099 16.5166 8.64211 16.2628 8.96948L13.9483 11.9552C13.3535 12.7075 12.2566 12.8447 11.4914 12.2534L11.4862 12.2494L9.65964 10.8121C9.54679 10.7264 9.38939 10.7477 9.3037 10.8583C9.30362 10.8584 9.30378 10.8582 9.3037 10.8583L6.92417 13.9476C6.67142 14.2758 6.2005 14.3369 5.87234 14.0842C5.54418 13.8314 5.48306 13.3605 5.73581 13.0323L8.11653 9.9414C8.71045 9.17281 9.81166 9.0339 10.5786 9.62652L10.5838 9.63056L12.4104 11.0679C12.5244 11.1545 12.6851 11.1322 12.7702 11.0267L15.0773 8.05049C15.331 7.72312 15.8021 7.66345 16.1295 7.91722Z" fill="black"/>
</svg>
