<svg width="34" height="34" viewBox="0 0 34 34" fill="none" xmlns="http://www.w3.org/2000/svg">
<path d="M24.572 24.572C20.3789 28.7651 13.5624 28.7651 9.36922 24.572C5.17608 20.3788 5.17608 13.5623 9.36922 9.36918C9.65913 9.07927 10.14 9.07927 10.4299 9.36918C10.7198 9.6591 10.7198 10.1399 10.4299 10.4298C6.82364 14.0361 6.82364 19.9051 10.4299 23.5113C14.0361 27.1176 19.9051 27.1176 23.5114 23.5113C27.1176 19.9051 27.1176 14.0361 23.5114 10.4298C23.2214 10.1399 23.2214 9.6591 23.5114 9.36918C23.8013 9.07927 24.2821 9.07927 24.572 9.36918C28.7652 13.5623 28.7652 20.3788 24.572 24.572Z" fill="#BDC0C4"/>
<path d="M17.5008 14.9553C17.3665 15.0897 17.1826 15.1745 16.9705 15.1745C16.5604 15.1745 16.221 14.8351 16.221 14.425L16.221 2.82843C16.221 2.41831 16.5604 2.0789 16.9705 2.0789C17.3806 2.0789 17.72 2.41831 17.72 2.82843L17.72 14.425C17.72 14.623 17.6423 14.8139 17.5008 14.9553Z" fill="#BDC0C4"/>
<path d="M20.9163 12.6714L17.5009 16.0867C17.211 16.3766 16.7302 16.3766 16.4403 16.0867L13.025 12.6714C12.735 12.3815 12.735 11.9006 13.025 11.6107C13.3149 11.3208 13.7957 11.3208 14.0856 11.6107L16.9706 14.4957L19.8556 11.6107C20.1455 11.3208 20.6264 11.3208 20.9163 11.6107C21.2062 11.9006 21.2062 12.3815 20.9163 12.6714Z" fill="#BDC0C4"/>
</svg>
