<svg width="38" height="38" viewBox="0 0 38 38" fill="none" xmlns="http://www.w3.org/2000/svg">
<path opacity="0.4" d="M30.4159 10.07C28.7692 6.74502 25.5867 4.29085 21.8976 3.48335C18.0342 2.62835 14.0759 3.54668 11.0517 5.98502C8.01172 8.40752 6.28589 12.0333 6.28589 15.9125C6.28589 20.0134 8.74006 24.3042 12.4451 26.79V28.1042C12.4292 28.5475 12.4134 29.2284 12.9517 29.7825C13.5059 30.3525 14.3292 30.4159 14.9784 30.4159H23.1009C23.9559 30.4159 24.6051 30.1784 25.0484 29.735C25.6501 29.1175 25.6342 28.3259 25.6184 27.8984V26.79C30.5267 23.4809 33.6142 16.4984 30.4159 10.07Z" fill="#FBB03B"/>
<path d="M24.1617 34.8333C24.0667 34.8333 23.9559 34.8175 23.8609 34.7858C20.6784 33.8833 17.3375 33.8833 14.155 34.7858C13.5692 34.9442 12.9517 34.6117 12.7934 34.0258C12.6192 33.44 12.9675 32.8225 13.5534 32.6642C17.1317 31.6508 20.9 31.6508 24.4784 32.6642C25.0642 32.8383 25.4125 33.44 25.2384 34.0258C25.08 34.5167 24.6367 34.8333 24.1617 34.8333Z" fill="#FBB03B"/>
</svg>
