<svg width="16" height="16" viewBox="0 0 16 16" fill="none" xmlns="http://www.w3.org/2000/svg">
<path opacity="0.4" d="M11.3334 6C11.3334 8.58 9.09337 10.6667 6.33337 10.6667L5.71338 11.4133L5.34671 11.8533C5.03338 12.2267 4.43337 12.1467 4.22671 11.7L3.33337 9.73331C2.12004 8.87998 1.33337 7.52666 1.33337 6C1.33337 3.42 3.57337 1.33333 6.33337 1.33333C8.34671 1.33333 10.0867 2.44667 10.8667 4.04667C11.1667 4.64 11.3334 5.29999 11.3334 6Z" fill="#242E4E"/>
<path d="M14.6667 8.57333C14.6667 10.1 13.88 11.4534 12.6667 12.3067L11.7734 14.2733C11.5667 14.72 10.9667 14.8067 10.6534 14.4267L9.66671 13.24C8.05337 13.24 6.61338 12.5267 5.71338 11.4133L6.33337 10.6667C9.09337 10.6667 11.3334 8.58001 11.3334 6.00001C11.3334 5.30001 11.1667 4.64001 10.8667 4.04668C13.0467 4.54668 14.6667 6.38666 14.6667 8.57333Z" fill="#242E4E"/>
<path d="M7.99996 6.5H4.66663C4.39329 6.5 4.16663 6.27333 4.16663 6C4.16663 5.72667 4.39329 5.5 4.66663 5.5H7.99996C8.27329 5.5 8.49996 5.72667 8.49996 6C8.49996 6.27333 8.27329 6.5 7.99996 6.5Z" fill="#242E4E"/>
</svg>
