<svg width="121" height="42" viewBox="0 0 121 42" fill="none" xmlns="http://www.w3.org/2000/svg">
<rect width="15.6" height="36.4" rx="7.8" fill="#233F9B"/>
<rect x="45" y="19" width="9" height="23" rx="4.5" fill="#FBB03B"/>
<path fill-rule="evenodd" clip-rule="evenodd" d="M18.2 10L18.2 36C25.3797 36 31.2 30.1797 31.2 23C31.2 15.8203 25.3797 10 18.2 10Z" fill="#233F9B"/>
<path fill-rule="evenodd" clip-rule="evenodd" d="M38 36L38 10C30.8203 10 25 15.8203 25 23C25 30.1797 30.8203 36 38 36Z" fill="#FBB03B"/>
<path fill-rule="evenodd" clip-rule="evenodd" d="M41 10L41 36C48.1797 36 54 30.1797 54 23C54 15.8203 48.1797 10 41 10Z" fill="#FBB03B"/>
<path d="M58.913 23V15.806H61.212C61.586 15.806 61.927 15.839 62.235 15.905C62.5503 15.9637 62.8217 16.0627 63.049 16.202C63.2837 16.334 63.4633 16.5137 63.588 16.741C63.72 16.9683 63.786 17.247 63.786 17.577C63.786 17.9217 63.698 18.2407 63.522 18.534C63.346 18.8273 63.1003 19.029 62.785 19.139V19.183C63.181 19.271 63.5073 19.458 63.764 19.744C64.028 20.0227 64.16 20.404 64.16 20.888C64.16 21.2473 64.0903 21.559 63.951 21.823C63.8117 22.087 63.6173 22.307 63.368 22.483C63.126 22.659 62.8363 22.791 62.499 22.879C62.1617 22.9597 61.795 23 61.399 23H58.913ZM60.189 18.776H61.102C61.608 18.776 61.971 18.6843 62.191 18.501C62.4183 18.3177 62.532 18.072 62.532 17.764C62.532 17.412 62.4147 17.1627 62.18 17.016C61.9453 16.8693 61.5933 16.796 61.124 16.796H60.189V18.776ZM60.189 22.01H61.267C61.795 22.01 62.202 21.9147 62.488 21.724C62.774 21.526 62.917 21.2253 62.917 20.822C62.917 20.4407 62.7777 20.1657 62.499 19.997C62.2203 19.821 61.8097 19.733 61.267 19.733H60.189V22.01ZM66.6755 23.132C66.1988 23.132 65.8138 22.989 65.5205 22.703C65.2271 22.4097 65.0805 22.0247 65.0805 21.548C65.0805 21.262 65.1391 21.009 65.2565 20.789C65.3811 20.5617 65.5718 20.3673 65.8285 20.206C66.0925 20.0447 66.4225 19.909 66.8185 19.799C67.2218 19.689 67.7021 19.6047 68.2595 19.546C68.2521 19.4067 68.2301 19.2747 68.1935 19.15C68.1641 19.018 68.1091 18.9043 68.0285 18.809C67.9551 18.7063 67.8561 18.6293 67.7315 18.578C67.6068 18.5193 67.4528 18.49 67.2695 18.49C67.0055 18.49 66.7451 18.5413 66.4885 18.644C66.2391 18.7467 65.9935 18.8713 65.7515 19.018L65.2895 18.171C65.5901 17.9803 65.9275 17.8153 66.3015 17.676C66.6755 17.5367 67.0788 17.467 67.5115 17.467C68.1861 17.467 68.6885 17.6687 69.0185 18.072C69.3558 18.468 69.5245 19.0437 69.5245 19.799V23H68.4795L68.3915 22.406H68.3475C68.1055 22.6113 67.8451 22.7837 67.5665 22.923C67.2951 23.0623 66.9981 23.132 66.6755 23.132ZM67.0825 22.142C67.3025 22.142 67.5005 22.0907 67.6765 21.988C67.8598 21.8853 68.0541 21.7387 68.2595 21.548V20.338C67.8928 20.382 67.5848 20.4407 67.3355 20.514C67.0861 20.5873 66.8845 20.6717 66.7305 20.767C66.5765 20.855 66.4665 20.9577 66.4005 21.075C66.3345 21.1923 66.3015 21.317 66.3015 21.449C66.3015 21.691 66.3748 21.867 66.5215 21.977C66.6681 22.087 66.8551 22.142 67.0825 22.142ZM71.0384 23V17.599H72.0834L72.1714 18.556H72.2154C72.406 18.204 72.637 17.9363 72.9084 17.753C73.1797 17.5623 73.4584 17.467 73.7444 17.467C74.001 17.467 74.2064 17.5037 74.3604 17.577L74.1404 18.677C74.045 18.6477 73.957 18.6257 73.8764 18.611C73.7957 18.5963 73.6967 18.589 73.5794 18.589C73.3667 18.589 73.143 18.6733 72.9084 18.842C72.6737 19.0033 72.472 19.2893 72.3034 19.7V23H71.0384ZM77.2454 23.132C76.9081 23.132 76.5854 23.0697 76.2774 22.945C75.9694 22.8203 75.6944 22.637 75.4524 22.395C75.2178 22.153 75.0308 21.856 74.8914 21.504C74.7521 21.152 74.6824 20.7523 74.6824 20.305C74.6824 19.8577 74.7521 19.458 74.8914 19.106C75.0308 18.754 75.2178 18.457 75.4524 18.215C75.6944 17.973 75.9694 17.7897 76.2774 17.665C76.5854 17.533 76.9081 17.467 77.2454 17.467C77.5828 17.467 77.9054 17.533 78.2134 17.665C78.5288 17.7897 78.8038 17.973 79.0384 18.215C79.2731 18.457 79.4601 18.754 79.5994 19.106C79.7461 19.458 79.8194 19.8577 79.8194 20.305C79.8194 20.7523 79.7461 21.152 79.5994 21.504C79.4601 21.856 79.2731 22.153 79.0384 22.395C78.8038 22.637 78.5288 22.8203 78.2134 22.945C77.9054 23.0697 77.5828 23.132 77.2454 23.132ZM77.2454 22.098C77.6414 22.098 77.9531 21.9367 78.1804 21.614C78.4078 21.284 78.5214 20.8477 78.5214 20.305C78.5214 19.755 78.4078 19.3187 78.1804 18.996C77.9531 18.666 77.6414 18.501 77.2454 18.501C76.8494 18.501 76.5378 18.666 76.3104 18.996C76.0904 19.3187 75.9804 19.755 75.9804 20.305C75.9804 20.8477 76.0904 21.284 76.3104 21.614C76.5378 21.9367 76.8494 22.098 77.2454 22.098ZM81.0716 23V15.234H82.3146V20.085H82.3476L84.3496 17.599H85.7356L83.8876 19.799L85.9226 23H84.5476L83.1616 20.657L82.3146 21.625V23H81.0716ZM88.0202 23.132C87.5435 23.132 87.1585 22.989 86.8652 22.703C86.5719 22.4097 86.4252 22.0247 86.4252 21.548C86.4252 21.262 86.4839 21.009 86.6012 20.789C86.7259 20.5617 86.9165 20.3673 87.1732 20.206C87.4372 20.0447 87.7672 19.909 88.1632 19.799C88.5665 19.689 89.0469 19.6047 89.6042 19.546C89.5969 19.4067 89.5749 19.2747 89.5382 19.15C89.5089 19.018 89.4539 18.9043 89.3732 18.809C89.2999 18.7063 89.2009 18.6293 89.0762 18.578C88.9515 18.5193 88.7975 18.49 88.6142 18.49C88.3502 18.49 88.0899 18.5413 87.8332 18.644C87.5839 18.7467 87.3382 18.8713 87.0962 19.018L86.6342 18.171C86.9349 17.9803 87.2722 17.8153 87.6462 17.676C88.0202 17.5367 88.4235 17.467 88.8562 17.467C89.5309 17.467 90.0332 17.6687 90.3632 18.072C90.7005 18.468 90.8692 19.0437 90.8692 19.799V23H89.8242L89.7362 22.406H89.6922C89.4502 22.6113 89.1899 22.7837 88.9112 22.923C88.6399 23.0623 88.3429 23.132 88.0202 23.132ZM88.4272 22.142C88.6472 22.142 88.8452 22.0907 89.0212 21.988C89.2045 21.8853 89.3989 21.7387 89.6042 21.548V20.338C89.2375 20.382 88.9295 20.4407 88.6802 20.514C88.4309 20.5873 88.2292 20.6717 88.0752 20.767C87.9212 20.855 87.8112 20.9577 87.7452 21.075C87.6792 21.1923 87.6462 21.317 87.6462 21.449C87.6462 21.691 87.7195 21.867 87.8662 21.977C88.0129 22.087 88.1999 22.142 88.4272 22.142ZM92.3831 23V15.234H93.6481V17.236L93.6041 18.281C93.8314 18.0683 94.0807 17.8813 94.3521 17.72C94.6307 17.5513 94.9571 17.467 95.3311 17.467C95.9104 17.467 96.3321 17.654 96.5961 18.028C96.8601 18.3947 96.9921 18.9227 96.9921 19.612V23H95.7271V19.777C95.7271 19.3297 95.6611 19.0143 95.5291 18.831C95.3971 18.6477 95.1807 18.556 94.8801 18.556C94.6454 18.556 94.4364 18.6147 94.2531 18.732C94.0771 18.842 93.8754 19.007 93.6481 19.227V23H92.3831ZM60.387 30.172L60.134 31.052H61.971L61.718 30.172C61.6007 29.7907 61.487 29.3983 61.377 28.995C61.2743 28.5917 61.1717 28.192 61.069 27.796H61.025C60.9223 28.1993 60.8197 28.6027 60.717 29.006C60.6143 29.402 60.5043 29.7907 60.387 30.172ZM57.978 34L60.321 26.806H61.817L64.16 34H62.818L62.257 32.053H59.837L59.276 34H57.978ZM64.9368 34V28.599H65.9818L66.0698 29.556H66.1138C66.3045 29.204 66.5355 28.9363 66.8068 28.753C67.0781 28.5623 67.3568 28.467 67.6428 28.467C67.8995 28.467 68.1048 28.5037 68.2588 28.577L68.0388 29.677C67.9435 29.6477 67.8555 29.6257 67.7748 29.611C67.6941 29.5963 67.5951 29.589 67.4778 29.589C67.2651 29.589 67.0415 29.6733 66.8068 29.842C66.5721 30.0033 66.3705 30.2893 66.2018 30.7V34H64.9368ZM70.9433 34.132C70.628 34.132 70.3603 34.0843 70.1403 33.989C69.9276 33.8937 69.7516 33.7617 69.6123 33.593C69.4803 33.417 69.3813 33.2117 69.3153 32.977C69.2566 32.735 69.2273 32.4673 69.2273 32.174V29.6H68.4573V28.654L69.2933 28.599L69.4473 27.125H70.5033V28.599H71.8783V29.6H70.5033V32.174C70.5033 32.8047 70.7563 33.12 71.2623 33.12C71.3576 33.12 71.453 33.109 71.5483 33.087C71.651 33.065 71.7426 33.0357 71.8233 32.999L72.0433 33.934C71.8966 33.9853 71.728 34.0293 71.5373 34.066C71.354 34.11 71.156 34.132 70.9433 34.132ZM73.0149 34V26.234H74.2799V28.236L74.2359 29.281C74.4632 29.0683 74.7126 28.8813 74.9839 28.72C75.2626 28.5513 75.5889 28.467 75.9629 28.467C76.5422 28.467 76.9639 28.654 77.2279 29.028C77.4919 29.3947 77.6239 29.9227 77.6239 30.612V34H76.3589V30.777C76.3589 30.3297 76.2929 30.0143 76.1609 29.831C76.0289 29.6477 75.8126 29.556 75.5119 29.556C75.2772 29.556 75.0682 29.6147 74.8849 29.732C74.7089 29.842 74.5072 30.007 74.2799 30.227V34H73.0149ZM80.4577 34.132C79.981 34.132 79.596 33.989 79.3027 33.703C79.0094 33.4097 78.8627 33.0247 78.8627 32.548C78.8627 32.262 78.9214 32.009 79.0387 31.789C79.1634 31.5617 79.354 31.3673 79.6107 31.206C79.8747 31.0447 80.2047 30.909 80.6007 30.799C81.004 30.689 81.4844 30.6047 82.0417 30.546C82.0344 30.4067 82.0124 30.2747 81.9757 30.15C81.9464 30.018 81.8914 29.9043 81.8107 29.809C81.7374 29.7063 81.6384 29.6293 81.5137 29.578C81.389 29.5193 81.235 29.49 81.0517 29.49C80.7877 29.49 80.5274 29.5413 80.2707 29.644C80.0214 29.7467 79.7757 29.8713 79.5337 30.018L79.0717 29.171C79.3724 28.9803 79.7097 28.8153 80.0837 28.676C80.4577 28.5367 80.861 28.467 81.2937 28.467C81.9684 28.467 82.4707 28.6687 82.8007 29.072C83.138 29.468 83.3067 30.0437 83.3067 30.799V34H82.2617L82.1737 33.406H82.1297C81.8877 33.6113 81.6274 33.7837 81.3487 33.923C81.0774 34.0623 80.7804 34.132 80.4577 34.132ZM80.8647 33.142C81.0847 33.142 81.2827 33.0907 81.4587 32.988C81.642 32.8853 81.8364 32.7387 82.0417 32.548V31.338C81.675 31.382 81.367 31.4407 81.1177 31.514C80.8684 31.5873 80.6667 31.6717 80.5127 31.767C80.3587 31.855 80.2487 31.9577 80.1827 32.075C80.1167 32.1923 80.0837 32.317 80.0837 32.449C80.0837 32.691 80.157 32.867 80.3037 32.977C80.4504 33.087 80.6374 33.142 80.8647 33.142ZM88.6067 30.172L88.3537 31.052H90.1907L89.9377 30.172C89.8204 29.7907 89.7067 29.3983 89.5967 28.995C89.4941 28.5917 89.3914 28.192 89.2887 27.796H89.2447C89.1421 28.1993 89.0394 28.6027 88.9367 29.006C88.8341 29.402 88.7241 29.7907 88.6067 30.172ZM86.1977 34L88.5407 26.806H90.0367L92.3797 34H91.0377L90.4767 32.053H88.0567L87.4957 34H86.1977ZM95.0375 36.387C94.7148 36.387 94.4142 36.3577 94.1355 36.299C93.8642 36.2403 93.6295 36.1523 93.4315 36.035C93.2335 35.9177 93.0758 35.771 92.9585 35.595C92.8485 35.419 92.7935 35.2137 92.7935 34.979C92.7935 34.7517 92.8595 34.539 92.9915 34.341C93.1235 34.1503 93.3142 33.978 93.5635 33.824V33.78C93.4242 33.692 93.3068 33.5747 93.2115 33.428C93.1235 33.2813 93.0795 33.098 93.0795 32.878C93.0795 32.6653 93.1382 32.4747 93.2555 32.306C93.3802 32.13 93.5195 31.987 93.6735 31.877V31.833C93.4902 31.6937 93.3252 31.503 93.1785 31.261C93.0392 31.0117 92.9695 30.7257 92.9695 30.403C92.9695 30.095 93.0282 29.82 93.1455 29.578C93.2628 29.336 93.4168 29.1343 93.6075 28.973C93.8055 28.8043 94.0328 28.6797 94.2895 28.599C94.5462 28.511 94.8175 28.467 95.1035 28.467C95.2502 28.467 95.3895 28.4817 95.5215 28.511C95.6608 28.533 95.7855 28.5623 95.8955 28.599H97.8315V29.534H96.8415C96.9295 29.6367 97.0028 29.7687 97.0615 29.93C97.1202 30.084 97.1495 30.2563 97.1495 30.447C97.1495 30.7477 97.0945 31.0117 96.9845 31.239C96.8818 31.4663 96.7388 31.657 96.5555 31.811C96.3722 31.965 96.1558 32.0823 95.9065 32.163C95.6572 32.2437 95.3895 32.284 95.1035 32.284C94.9862 32.284 94.8652 32.273 94.7405 32.251C94.6158 32.229 94.4912 32.1923 94.3665 32.141C94.2858 32.2143 94.2198 32.2877 94.1685 32.361C94.1245 32.4343 94.1025 32.5333 94.1025 32.658C94.1025 32.812 94.1648 32.933 94.2895 33.021C94.4215 33.109 94.6525 33.153 94.9825 33.153H95.9395C96.5922 33.153 97.0835 33.2593 97.4135 33.472C97.7508 33.6773 97.9195 34.0147 97.9195 34.484C97.9195 34.748 97.8498 34.9973 97.7105 35.232C97.5785 35.4667 97.3878 35.6683 97.1385 35.837C96.8892 36.0057 96.5848 36.1377 96.2255 36.233C95.8735 36.3357 95.4775 36.387 95.0375 36.387ZM95.1035 31.492C95.3602 31.492 95.5802 31.4003 95.7635 31.217C95.9468 31.0263 96.0385 30.755 96.0385 30.403C96.0385 30.0657 95.9468 29.8053 95.7635 29.622C95.5875 29.4313 95.3675 29.336 95.1035 29.336C94.8395 29.336 94.6158 29.4277 94.4325 29.611C94.2492 29.7943 94.1575 30.0583 94.1575 30.403C94.1575 30.755 94.2492 31.0263 94.4325 31.217C94.6158 31.4003 94.8395 31.492 95.1035 31.492ZM95.2355 35.562C95.6755 35.562 96.0275 35.474 96.2915 35.298C96.5628 35.1293 96.6985 34.9277 96.6985 34.693C96.6985 34.4803 96.6142 34.3373 96.4455 34.264C96.2842 34.1907 96.0495 34.154 95.7415 34.154H95.0045C94.7112 34.154 94.4655 34.1283 94.2675 34.077C93.9888 34.2897 93.8495 34.528 93.8495 34.792C93.8495 35.034 93.9705 35.221 94.2125 35.353C94.4618 35.4923 94.8028 35.562 95.2355 35.562ZM100.477 34.132C99.898 34.132 99.4764 33.9487 99.2124 33.582C98.9484 33.208 98.8164 32.6763 98.8164 31.987V28.599H100.081V31.822C100.081 32.2693 100.147 32.5847 100.279 32.768C100.411 32.9513 100.624 33.043 100.917 33.043C101.152 33.043 101.357 32.9843 101.533 32.867C101.717 32.7497 101.911 32.559 102.116 32.295V28.599H103.381V34H102.347L102.248 33.208H102.215C101.981 33.4867 101.724 33.7103 101.445 33.879C101.174 34.0477 100.851 34.132 100.477 34.132ZM104.984 34V28.599H106.029L106.117 29.325H106.161C106.403 29.0903 106.663 28.8887 106.942 28.72C107.228 28.5513 107.558 28.467 107.932 28.467C108.511 28.467 108.933 28.654 109.197 29.028C109.461 29.3947 109.593 29.9227 109.593 30.612V34H108.328V30.777C108.328 30.3297 108.262 30.0143 108.13 29.831C107.998 29.6477 107.781 29.556 107.481 29.556C107.246 29.556 107.037 29.6147 106.854 29.732C106.678 29.842 106.476 30.007 106.249 30.227V34H104.984ZM113.02 36.387C112.697 36.387 112.397 36.3577 112.118 36.299C111.847 36.2403 111.612 36.1523 111.414 36.035C111.216 35.9177 111.058 35.771 110.941 35.595C110.831 35.419 110.776 35.2137 110.776 34.979C110.776 34.7517 110.842 34.539 110.974 34.341C111.106 34.1503 111.297 33.978 111.546 33.824V33.78C111.407 33.692 111.289 33.5747 111.194 33.428C111.106 33.2813 111.062 33.098 111.062 32.878C111.062 32.6653 111.121 32.4747 111.238 32.306C111.363 32.13 111.502 31.987 111.656 31.877V31.833C111.473 31.6937 111.308 31.503 111.161 31.261C111.022 31.0117 110.952 30.7257 110.952 30.403C110.952 30.095 111.011 29.82 111.128 29.578C111.245 29.336 111.399 29.1343 111.59 28.973C111.788 28.8043 112.015 28.6797 112.272 28.599C112.529 28.511 112.8 28.467 113.086 28.467C113.233 28.467 113.372 28.4817 113.504 28.511C113.643 28.533 113.768 28.5623 113.878 28.599H115.814V29.534H114.824C114.912 29.6367 114.985 29.7687 115.044 29.93C115.103 30.084 115.132 30.2563 115.132 30.447C115.132 30.7477 115.077 31.0117 114.967 31.239C114.864 31.4663 114.721 31.657 114.538 31.811C114.355 31.965 114.138 32.0823 113.889 32.163C113.64 32.2437 113.372 32.284 113.086 32.284C112.969 32.284 112.848 32.273 112.723 32.251C112.598 32.229 112.474 32.1923 112.349 32.141C112.268 32.2143 112.202 32.2877 112.151 32.361C112.107 32.4343 112.085 32.5333 112.085 32.658C112.085 32.812 112.147 32.933 112.272 33.021C112.404 33.109 112.635 33.153 112.965 33.153H113.922C114.575 33.153 115.066 33.2593 115.396 33.472C115.733 33.6773 115.902 34.0147 115.902 34.484C115.902 34.748 115.832 34.9973 115.693 35.232C115.561 35.4667 115.37 35.6683 115.121 35.837C114.872 36.0057 114.567 36.1377 114.208 36.233C113.856 36.3357 113.46 36.387 113.02 36.387ZM113.086 31.492C113.343 31.492 113.563 31.4003 113.746 31.217C113.929 31.0263 114.021 30.755 114.021 30.403C114.021 30.0657 113.929 29.8053 113.746 29.622C113.57 29.4313 113.35 29.336 113.086 29.336C112.822 29.336 112.598 29.4277 112.415 29.611C112.232 29.7943 112.14 30.0583 112.14 30.403C112.14 30.755 112.232 31.0263 112.415 31.217C112.598 31.4003 112.822 31.492 113.086 31.492ZM113.218 35.562C113.658 35.562 114.01 35.474 114.274 35.298C114.545 35.1293 114.681 34.9277 114.681 34.693C114.681 34.4803 114.597 34.3373 114.428 34.264C114.267 34.1907 114.032 34.154 113.724 34.154H112.987C112.694 34.154 112.448 34.1283 112.25 34.077C111.971 34.2897 111.832 34.528 111.832 34.792C111.832 35.034 111.953 35.221 112.195 35.353C112.444 35.4923 112.785 35.562 113.218 35.562Z" fill="#98A2AD"/>
</svg>
